<svg enable-background="new 0 0 512.001 512.001" viewBox="0 0 512.001 512.001" xmlns="http://www.w3.org/2000/svg"><path d="m139.85 228.537c0 28.649-32.438 51.873-72.453 51.873s-59.912-23.223-59.912-51.873 19.897-51.873 59.911-51.873 72.454 23.224 72.454 51.873z" fill="#ee534f"/><path d="m67.397 250.471c-32.743 0-52.007-15.554-57.929-36.904-1.315 4.741-1.981 9.765-1.981 14.97 0 28.649 19.897 51.874 59.912 51.874s72.453-23.225 72.453-51.874c0-5.206-1.084-10.23-3.077-14.97-8.978 21.349-36.635 36.904-69.378 36.904z" opacity=".1"/><path d="m453.093 57.093s-156.771 87.434-255.927 87.434l-57.318 84.01 57.318 84.01c99.155 0 255.927 87.434 255.927 87.434l25.71-171.444z" fill="#ccc"/><path d="m67.397 280.412s31.862 71.478 35.357 161.387l32.559 24.112 32.559-23.989v-152.388z" fill="#b3b3b3"/><path d="m130.827 144.527c-46.397 0-84.01 37.613-84.01 84.01 0 46.397 37.613 84.01 84.01 84.01h66.339v-168.02z" fill="#029ae6"/><path d="m453.093 363.054s-156.772-87.433-255.927-87.433h-66.339c-40.051 0-73.533-28.036-81.95-65.546-1.333 5.944-2.06 12.117-2.06 18.464 0 46.397 37.613 84.01 84.01 84.01h66.339c99.155 0 255.927 87.433 255.927 87.433l25.71-171.444-2.769-18.464z" opacity=".1"/><path d="m135.47 447.556c-12.021 0-23.231-2.114-32.716-5.758.203 5.218.316 10.492.316 15.824 0 17.895 14.506 32.401 32.401 32.401s32.401-14.506 32.401-32.401v-15.7c-9.418 3.569-20.514 5.634-32.402 5.634z" fill="#ee534f"/><path d="m478.805 21.977c-14.2 0-25.71 11.511-25.71 25.71v361.7c0 14.2 11.511 25.71 25.71 25.71 14.2 0 25.71-11.511 25.71-25.71v-361.699c0-14.2-11.511-25.711-25.71-25.711z" fill="#ee534f"/><path d="m478.805 391.185c-14.2 0-25.71-11.511-25.71-25.711v43.913c0 14.2 11.511 25.711 25.71 25.711 14.2 0 25.71-11.511 25.71-25.711v-43.913c0 14.2-11.511 25.711-25.71 25.711z" opacity=".1"/><path d="m258.479 320.758c-1.025 4.005 1.391 8.083 5.396 9.107 77.94 19.939 162.891 64.411 181.733 74.562v4.961c0 18.304 14.892 33.195 33.196 33.195 18.305 0 33.196-14.892 33.196-33.195v-265.366c0-4.134-3.35-7.485-7.485-7.485s-7.485 3.351-7.485 7.485v265.365c0 10.049-8.176 18.225-18.226 18.225s-18.226-8.176-18.226-18.225v-9.406-342.888-9.406c0-10.049 8.176-18.225 18.226-18.225s18.226 8.176 18.226 18.225v66.394c0 4.134 3.35 7.485 7.485 7.485s7.485-3.351 7.485-7.485v-66.394c0-18.304-14.892-33.195-33.196-33.195-18.305 0-33.196 14.892-33.196 33.195v4.963c-9.054 4.886-33.379 17.715-64.695 31.849-3.768 1.701-5.444 6.134-3.744 9.902 1.701 3.768 6.133 5.443 9.901 3.744 25.486-11.501 46.471-22.188 58.537-28.536v317.866c-28.321-14.87-105.96-53.679-178.023-72.114-4.002-1.024-8.082 1.392-9.105 5.397z"/><path d="m88.545 380.861c.725 4.07 4.611 6.782 8.681 6.058 4.07-.725 6.782-4.611 6.058-8.681-5.034-28.292-11.869-52.523-17.613-70.07 11.412 6.509 24.126 10.443 37.47 11.54 2.556.21 5.121.325 7.686.325h29.559v116.503c0 .584-7.873 1.961-8.658 2.108-9.872 1.838-20.075 1.924-29.994.39-3.968-.614-7.894-1.486-11.733-2.667-.465-9.109-1.232-18.409-2.286-27.718-.465-4.108-4.178-7.063-8.28-6.596-4.108.465-7.061 4.173-6.595 8.28 1.212 10.703 2.031 21.388 2.433 31.758.207 5.291.31 10.516.31 15.532 0 21.994 17.893 39.886 39.886 39.886s39.886-17.893 39.886-39.886v-137.591h21.81c11.16 0 23.73 1.181 37.363 3.508.427.073.851.108 1.268.108 3.581 0 6.747-2.578 7.369-6.227.696-4.075-2.043-7.942-6.119-8.638-11.524-1.968-22.387-3.163-32.397-3.566v-99.17c0-4.134-3.351-7.485-7.485-7.485s-7.485 3.351-7.485 7.485v99.014h-21.81s-37.043 0-37.044 0c-25.007 0-49.351-12.863-63.405-33.722-.015-.022-.031-.044-.046-.066-17.979-26.203-16.879-62.904 2.017-88.308.102-.138.206-.273.309-.411 13.978-18.534 36.174-30.542 61.124-30.542h58.854v24.094c0 4.134 3.351 7.485 7.485 7.485s7.485-3.351 7.485-7.485v-24.245c39.423-1.562 90.586-15.227 152.255-40.677 3.821-1.577 5.64-5.953 4.063-9.775-1.576-3.821-5.955-5.641-9.775-4.064-62.929 25.97-116.19 39.697-154.029 39.697h-66.339c-27.915 0-52.944 12.57-69.741 32.342-37.228 2.28-61.082 25.202-61.082 59.154 0 33.951 23.853 56.874 61.086 59.153.747.879 1.507 1.746 2.285 2.595 5.341 13.54 17.432 47.062 25.174 90.575zm71.841 76.761c0 13.739-11.177 24.916-24.916 24.916s-24.916-11.177-24.916-24.916c0-1.83-.013-3.688-.04-5.564 12.322 3.062 25.177 3.74 37.772 2.211 4.073-.494 8.115-1.213 12.098-2.198zm-110.618-186.607c-9.258-2.162-16.983-6.143-22.758-11.794-7.876-7.708-12.039-18.318-12.039-30.683 0-12.367 4.163-22.977 12.039-30.683 5.776-5.652 13.499-9.633 22.758-11.795-5.372 10.182-8.716 21.348-9.925 32.792-1.249 11.813-.204 23.898 3.11 35.307 1.693 5.83 3.981 11.486 6.815 16.856z"/></svg>